# xmcd
#
# Track frame offsets: 
#        150
#        20255
#        36967
#        39852
#        58132
#        76477
#        100580
#        103725
#        124492
#        147650
#        150617
#        170420
#        191225
#        193267
#        216470
#        220315
#        239602
#
# Disc length: 3421 seconds
#
# Revision: 4
# Processed by: cddbd v1.5.2PL0 Copyright (c) Steve Scherf et al.
# Submitted via: ExactAudioCopy v1.0b3
#
DISCID=040d5b11
DTITLE=Earth, Wind and Fire - The Promise
DYEAR=2003
DGENRE=Soul
TTITLE0=All In The Way
TTITLE1=Betcha'
TTITLE2=Wiggle
TTITLE3=Why ?
TTITLE4=Wonderland
TTITLE5=Where Do We Go From Here ?
TTITLE6=Freedom
TTITLE7=Hold Me
TTITLE8=Never
TTITLE9=Prelude
TTITLE10=All About Love
TTITLE11=Suppose You Like Me
TTITLE12=The Promise
TTITLE13=She Waits
TTITLE14=The Promise (Continued)
TTITLE15=Let Me Love You
TTITLE16=Dirty
EXTD=
EXTT0=
EXTT1=
EXTT2=
EXTT3=
EXTT4=
EXTT5=
EXTT6=
EXTT7=
EXTT8=
EXTT9=
EXTT10=
EXTT11=
EXTT12=
EXTT13=
EXTT14=
EXTT15=
EXTT16=
PLAYORDER=
